<?xml version="1.0" standalone="no"?>
<!DOCTYPE svg PUBLIC "-//W3C//DTD SVG 20010904//EN"
 "http://www.w3.org/TR/2001/REC-SVG-20010904/DTD/svg10.dtd">
<svg version="1.0" xmlns="http://www.w3.org/2000/svg"
 width="117.000000pt" height="117.000000pt" viewBox="0 0 117.000000 117.000000"
 preserveAspectRatio="xMidYMid meet">
<metadata>
Created by potrace 1.14, written by Peter Selinger 2001-2017
</metadata>
<g transform="translate(0.000000,117.000000) scale(0.100000,-0.100000)"
fill="#000000" stroke="none">
<path d="M792 925 c-36 -30 -45 -69 -27 -112 26 -61 106 -74 156 -24 45 45 34
118 -22 147 -41 21 -74 17 -107 -11z"/>
<path d="M321 764 c-126 -113 -128 -326 -6 -449 54 -54 135 -88 209 -89 69 -1
140 17 176 44 42 32 14 34 -51 5 -53 -24 -71 -27 -128 -23 -112 8 -191 61
-240 160 -56 111 -38 226 50 323 57 62 49 83 -10 29z"/>
<path d="M488 781 c-183 -37 -260 -265 -137 -405 54 -61 125 -90 204 -84 70 6
109 24 156 70 67 67 91 185 56 269 -44 107 -167 172 -279 150z"/>
</g>
</svg>
